<svg width="288" height="348" viewBox="0 0 288 348" fill="none" xmlns="http://www.w3.org/2000/svg">
<path d="M0.00012207 323.511H990.064V327.368H0.00012207V323.511Z" fill="#E1E4F4"/>
<path d="M35.1722 269.442C35.1722 269.442 54.1465 278.004 73.121 277.078C92.0954 276.152 95.5664 269.442 95.5664 269.442C95.5664 269.442 68.1846 260.803 35.1722 269.442Z" fill="#D0D5F4"/>
<path d="M95.4886 269.442C95.4886 269.442 92.0177 276.152 73.0433 277.078C54.0689 278.004 35.0945 269.442 35.0945 269.442C15.503 309.782 19.2053 334.695 43.579 345.802H86.927C112.612 334.618 118.165 310.862 95.4886 269.442Z" fill="#E1E4F4"/>
<path d="M95.4893 276.229C87.9303 288.802 60.3172 285.717 38.4117 279.778C38.4117 279.778 89.473 300.912 95.4893 276.229Z" fill="#D0D5F4"/>
<path d="M108.292 251.085C108.292 266.665 88.7007 279.315 64.4813 279.315C40.2619 279.315 20.6704 266.665 20.6704 251.085V245.994C20.6704 230.413 40.2619 217.764 64.4813 217.764C88.7007 217.764 108.292 230.413 108.292 245.994V251.085Z" fill="#D0D5F4"/>
<path d="M119.709 252.936C126.573 250.39 115.235 247.845 112.767 248.539C109.296 249.465 97.2634 256.021 104.514 260.34C100.117 262.423 94.641 263.426 91.3243 267.282C85.9251 273.916 93.8696 275.535 98.5746 270.599C100.117 278.081 124.645 270.368 110.299 266.511C113.153 265.817 119.4 268.439 121.637 266.357C127.345 261.035 112.381 259.183 110.299 259.106C113.538 256.638 115.544 254.401 119.709 252.936C123.103 251.625 116.238 254.17 119.709 252.936Z" fill="#D0D5F4"/>
<path d="M91.555 273.607C94.4088 272.913 100.657 275.613 102.893 273.453C108.601 268.131 93.6375 266.28 91.555 266.202C94.7945 263.657 96.8 261.42 100.965 259.955C104.359 258.644 97.4942 261.189 100.965 259.955C107.83 257.409 96.4915 254.864 94.0232 255.558C90.5523 256.484 78.5197 263.04 85.7701 267.359C81.3736 269.442 75.8972 270.445 72.5806 274.301C67.1813 280.935 75.1259 282.554 79.831 277.618C81.3736 285.1 105.901 277.387 91.555 273.607Z" fill="#E1E4F4"/>
<path d="M109.991 235.735C114.85 231.416 104.669 232.959 102.817 234.347C100.272 236.198 92.4818 245.608 99.8093 246.765C96.8783 249.928 92.636 252.473 91.1705 256.792C88.8565 264.043 95.9527 262.809 98.2666 257.178C101.969 262.886 119.709 248.539 106.674 250.005C108.834 248.462 114.85 248.694 116.007 246.225C118.938 239.978 105.98 243.294 104.283 243.911C106.134 240.749 107.06 238.281 109.991 235.735C112.382 233.576 107.522 237.895 109.991 235.735Z" fill="#E1E4F4"/>
<path d="M105.594 232.341C109.99 226.479 97.649 227.482 95.4893 227.791C97.8033 226.094 101.351 219.692 97.572 217.069C94.4867 214.91 91.17 222.546 89.1646 224.088C86.6964 219.152 82.9169 213.676 77.5948 211.593C72.5041 209.665 64.7138 214.216 70.3444 220C75.2037 225.014 81.8371 225.631 86.3879 232.341C89.6274 237.124 91.7871 229.565 93.6383 228.793C89.0104 234.578 102.277 236.815 105.594 232.341C106.365 231.339 104.282 234.116 105.594 232.341Z" fill="#D0D5F4"/>
<path d="M26.7646 261.42C19.8998 258.875 31.2382 256.329 33.7064 257.024C37.1774 257.949 49.21 264.505 41.9596 268.825C46.3561 270.907 51.8325 271.91 55.1491 275.767C60.5483 282.4 52.6038 284.02 47.8987 279.083C46.3561 286.565 21.8282 278.852 36.1747 274.995C33.3208 274.301 27.0731 276.924 24.8363 274.841C19.1285 269.519 34.0922 267.668 36.1747 267.591C32.9352 265.122 30.9297 262.886 26.7646 261.42C23.3708 260.186 30.2355 262.654 26.7646 261.42Z" fill="#E1E4F4"/>
<path d="M17.7392 237.278C12.8799 232.958 23.0613 234.501 24.9124 235.889C27.4578 237.741 35.2481 247.151 27.9206 248.308C30.8516 251.47 35.0939 254.015 36.5594 258.335C38.8734 265.585 31.7772 264.351 29.4632 258.721C25.7609 264.428 8.02057 250.082 21.0558 251.547C18.8962 250.005 12.8799 250.236 11.7229 247.768C8.79191 241.52 21.7501 244.837 23.447 245.454C21.5958 242.291 20.6702 239.823 17.7392 237.278C15.271 235.118 20.2075 239.438 17.7392 237.278Z" fill="#D0D5F4"/>
<path d="M22.0603 233.807C17.6637 227.945 30.0048 228.948 32.1645 229.256C29.8506 227.559 26.3025 221.157 30.082 218.535C33.1673 216.375 36.4839 224.011 38.4894 225.554C40.9576 220.618 44.737 215.141 50.0591 213.059C55.1498 211.13 62.9401 215.681 57.3095 221.466C52.4502 226.48 45.8169 227.097 41.2661 233.807C38.0266 238.589 35.8669 231.03 34.0157 230.259C38.6436 236.121 25.4541 238.281 22.0603 233.807C21.3661 232.804 23.4486 235.658 22.0603 233.807Z" fill="#D0D5F4"/>
<path d="M41.727 239.746C37.5619 233.73 34.6309 245.84 34.2453 247.999C33.3197 245.3 28.3832 239.9 24.6809 242.677C21.6728 244.914 27.8433 250.467 28.7688 252.859C23.2925 253.707 16.9677 255.558 13.2654 259.955C9.79444 264.197 11.7228 273.067 18.9731 269.519C25.298 266.434 27.8433 260.34 35.7107 258.104C41.2642 256.484 34.708 252.164 34.5537 250.082C38.7189 256.252 44.9666 244.374 41.727 239.746C41.0328 238.821 43.0383 241.674 41.727 239.746Z" fill="#F7F7FA"/>
<path d="M120.247 249.619C125.569 244.528 113.151 243.526 110.991 243.526C113.537 242.214 118.087 236.43 114.771 233.267C112.071 230.645 107.598 237.664 105.361 238.821C103.664 233.499 100.81 227.559 95.9507 224.628C91.2456 221.852 82.7611 225.168 87.389 231.725C91.3998 237.432 97.8018 239.052 101.273 246.534C103.664 251.779 107.058 244.683 108.986 244.143C103.51 249.233 116.236 253.553 120.247 249.619C121.173 248.771 118.627 251.239 120.247 249.619Z" fill="#F7F7FA"/>
<path d="M51.137 251.933C58.0017 249.388 46.6633 246.842 44.1951 247.537C40.7242 248.462 28.6917 255.018 35.942 259.338C31.5455 261.42 26.0692 262.423 22.7525 266.28C17.3533 272.913 25.2979 274.533 30.0029 269.596C31.5456 277.078 56.0734 269.365 41.7269 265.508C44.5808 264.814 50.8284 267.437 53.0653 265.354C58.773 260.032 43.8095 258.181 41.7269 258.104C44.9665 255.635 47.049 253.399 51.137 251.933C54.5308 250.699 47.666 253.167 51.137 251.933Z" fill="#E1E4F4"/>
<path d="M63.633 280.24C69.6493 284.405 65.1756 273.684 63.2473 272.064C60.5477 269.75 48.2066 263.734 48.8236 272.064C44.5814 269.673 40.6477 265.74 35.557 265.354C26.9954 264.737 30.3121 272.141 37.0225 273.221C31.7776 278.775 52.2175 294.355 47.1268 280.472C49.3636 282.4 50.752 289.033 53.7601 289.65C61.3961 291.193 54.3001 277.926 53.1431 276.152C57.0768 277.309 60.0078 277.695 63.633 280.24C66.6411 282.246 60.5477 278.081 63.633 280.24Z" fill="#F7F7FA"/>
<path d="M64.4046 262.577C62.1678 258.258 51.8321 264.274 53.3748 268.516C55.5344 274.995 66.4101 266.434 64.4046 262.577C63.6333 261.112 65.0217 263.734 64.4046 262.577Z" fill="#E1E4F4"/>
<path d="M70.6527 259.569C68.493 260.032 61.7826 263.734 68.2616 265.662C75.2806 267.822 75.9748 258.721 70.6527 259.569C69.4957 259.878 74.8178 258.875 70.6527 259.569Z" fill="#F7F7FA"/>
<path d="M96.029 249.696C97.1088 251.624 102.508 257.024 102.585 250.313C102.662 242.908 93.6379 244.837 96.029 249.696C96.5689 250.699 94.1778 245.917 96.029 249.696Z" fill="#F7F7FA"/>
<path d="M82.2224 248.231C82.9165 249.465 86.3875 252.936 86.4646 248.616C86.4646 243.911 80.6797 245.068 82.2224 248.231C82.608 248.925 80.9882 245.763 82.2224 248.231Z" fill="#F7F7FA"/>
<path d="M140.302 310.245C140.302 310.245 125.955 345.185 138.219 338.629L156.268 311.401C156.268 311.479 145.778 305.385 140.302 310.245Z" fill="#D0D5F4"/>
<path d="M222.755 312.096C222.755 312.096 208.023 352.282 220.287 344.646L238.644 313.253C238.644 313.253 228.232 306.388 222.755 312.096Z" fill="#D0D5F4"/>
<path d="M382.805 271.293C382.805 271.293 387.202 244.22 370.31 236.969L354.112 231.185C354.112 231.185 327.579 215.912 321.177 204.266C319.326 200.872 318.632 197.015 316.086 193.621C310.224 185.754 301.663 184.443 292.33 183.748C266.491 181.82 240.343 180.663 214.427 180.278C189.899 179.969 165.216 181.126 140.766 184.134C125.262 186.062 111.918 191.462 112.613 192.541L215.584 313.099C227.77 312.636 237.489 314.333 249.676 313.87C273.047 312.944 298.886 311.402 322.257 310.553C337.76 310.09 354.421 310.862 369.77 308.702C378.332 307.545 381.803 299.292 381.34 291.116L382.805 271.293Z" fill="#E1E4F4"/>
<path d="M310.532 250.313C305.287 249.311 299.888 248.694 294.566 248.077C291.866 247.845 289.167 247.614 286.544 247.459L282.533 247.228L278.523 247.074C267.724 246.688 256.926 246.92 246.204 247.537C243.505 247.691 240.805 247.999 238.183 248.154L234.172 248.462L230.161 248.925L222.139 249.851C219.44 250.236 216.817 250.622 214.117 251.085L210.107 251.702C208.795 251.933 207.484 252.164 206.096 252.396L198.151 253.861L196.146 254.247L194.14 254.71L190.207 255.635C187.584 256.252 184.962 256.87 182.339 257.487C187.661 256.638 192.906 255.558 198.228 254.71L206.173 253.476C207.484 253.244 208.795 253.013 210.184 252.859L214.195 252.396L222.216 251.393L230.238 250.545L234.249 250.159L238.26 249.851C240.959 249.619 243.582 249.388 246.281 249.233L254.303 248.771C257.003 248.616 259.702 248.616 262.325 248.462C265.024 248.308 267.724 248.308 270.347 248.308L274.357 248.231H278.368H282.379L286.39 248.385C289.09 248.462 291.789 248.616 294.412 248.694C299.811 249.311 305.21 249.696 310.532 250.313Z" fill="#D0D5F4"/>
<path d="M121.867 284.174C131.663 317.958 156.731 313.638 156.731 313.638L234.557 313.87C224.53 312.327 222.987 286.565 222.987 286.565C223.45 246.919 162.747 233.653 162.747 233.653C142.23 184.134 112.688 192.619 112.688 192.619C112.688 192.619 100.039 208.816 121.867 284.174Z" fill="#D0D5F4"/>
<path d="M121.868 284.174C131.663 317.958 156.731 313.638 156.731 313.638L234.557 313.87C224.53 312.327 222.987 286.565 222.987 286.565C223.45 246.919 162.747 233.653 162.747 233.653C142.23 184.134 112.689 192.619 112.689 192.619C112.689 192.619 100.039 208.816 121.868 284.174Z" fill="#D0D5F4"/>
<path d="M61.7831 107.234H135.984V16.7583H61.7831V107.234ZM131.433 102.606H66.4881V21.3862H131.433V102.606Z" fill="#E1E4F4"/>
<path d="M75.2807 32.8015H122.64V91.1903H75.2807V32.8015Z" fill="#E1E4F4"/>
</svg>
