<svg width="42" height="42" viewBox="0 0 42 42" fill="none" xmlns="http://www.w3.org/2000/svg">
<path d="M37.5605 35.4177L13.8729 41.7562C10.6888 42.6192 7.41538 40.7444 6.5524 37.5603L0.213897 13.8727C-0.649091 10.6886 1.25543 7.4152 4.43956 6.55221L28.1271 0.213714C31.3112 -0.649274 34.5846 1.25525 35.4476 4.43938L41.7861 28.1269C42.6194 31.311 40.7446 34.5845 37.5605 35.4177Z" fill="#E1E4F4"/>
<path d="M38.3042 12.325L36.8758 13.6641C36.8758 13.6641 28.9006 8.69451 28.6328 8.51597C28.365 8.36717 26.1331 12.1762 25.7165 12.4143L1.16595 26.5792L20.4195 30.1799L38.6911 20.3597C39.3755 19.9431 38.3042 12.325 38.3042 12.325Z" fill="#2B2E3A"/>
<path d="M23.2763 12.8906L22.0562 12.474C21.7884 12.3847 21.5206 12.2061 21.342 11.9978L20.8957 11.4622C20.6576 11.1646 20.1815 11.1944 19.9732 11.5514L19.5565 12.2656C19.4673 12.4144 19.4077 12.593 19.4077 12.8013V14.5273L18.1281 16.164L14.0513 18.5149C13.9025 18.6041 13.8132 18.7529 13.8132 18.9315V19.4969C13.8132 19.6754 13.9025 19.8242 14.0513 19.9135L17.8306 22.0859C18.0091 22.2049 18.2472 22.2049 18.4257 22.0859L22.7407 19.6457C22.8597 19.5862 22.9192 19.4671 22.9192 19.3183V18.9315L24.2881 14.9439C24.5559 14.1107 24.1095 13.1882 23.2763 12.8906Z" fill="#57617F"/>
<path d="M29.3172 17.3247L28.0971 16.908C27.8293 16.8188 27.5615 16.6402 27.3829 16.4319L26.9365 15.8963C26.6985 15.5987 26.2224 15.6284 26.014 15.9855L25.7462 16.4617C25.5677 16.789 25.4486 17.1461 25.4486 17.5032V19.497C25.4486 19.7053 25.3296 19.9136 25.1511 20.0326L24.1988 20.5981L20.1219 22.949C19.9731 23.0382 19.8839 23.187 19.8839 23.3656V23.931C19.8839 24.1095 19.9731 24.2583 20.1219 24.3476L23.9012 26.5199C24.0798 26.639 24.3178 26.639 24.4964 26.5199L28.8113 24.0798C28.9303 24.0203 28.9899 23.9012 28.9899 23.7524V23.3656L30.3587 19.378C30.6266 18.515 30.1802 17.6222 29.3172 17.3247Z" fill="#57617F"/>
<path d="M11.9979 13.7236L11.1945 17.4732L14.2 15.5984L14.3191 17.2053L16.8188 17.8898L15.0333 19.1694L16.0451 22.175L7.83179 17.8898L9.23042 15.7472L11.9979 13.7236Z" fill="#FFD385"/>
<path d="M19.9434 15.0928L18.1877 17.0568L20.6874 16.9378L20.5981 17.89L22.2051 18.1876L22.6217 16.2533L19.9434 15.0928Z" fill="#FFD385"/>
<path d="M2.38612 23.1572C2.29684 23.3655 1.88023 23.1275 1.52313 24.5856C0.957724 25.1213 0.779175 25.9247 0.779175 26.3414V29.2874C0.779175 29.9123 0.987482 30.4777 1.4041 30.9539C1.58265 31.1622 2.47539 30.6861 2.74322 30.8348C5.06436 32.174 7.56405 33.3941 7.56405 33.3941C8.90317 34.1678 9.61736 35.3581 11.1648 35.3581L11.5814 34.5546L13.5752 26.1628L2.38612 23.1572Z" fill="#F97A7A"/>
<path d="M36.8759 9.31953L27.7699 4.11184C26.8771 3.60595 25.7463 3.60595 24.8536 4.11184L16.6701 9.79566C16.2237 10.0932 15.7178 10.3015 15.1821 10.3908L13.5454 10.6289L12.98 11.0455C12.7122 11.2538 12.4741 11.5216 12.3254 11.849L11.6707 13.2774L8.75437 15.7473L7.83186 17.2352L3.13007 20.8657C2.86224 21.074 3.21934 21.7287 3.07055 21.9965C2.83248 22.3834 2.1778 22.7107 2.1778 23.1869L2.11829 23.6332C2.11829 23.9308 3.21934 24.7938 3.57644 24.0796C3.8145 23.6035 6.90936 24.7045 7.35573 24.9723L8.69485 26.5495C9.46856 26.9959 8.18896 28.7219 9.08171 28.6028L12.5932 28.335C13.2479 28.2755 14.4084 28.6921 14.9738 28.3648C17.2355 27.1447 20.0327 24.3177 20.2113 24.3772L23.0681 16.64C27.5616 12.831 32.3824 12.1168 36.8759 9.31953ZM21.8777 17.265L19.6161 22.919C19.4673 23.2761 19.14 23.5142 18.7531 23.5142L8.54606 17.6518C8.48654 17.384 8.54606 17.0864 8.75437 16.8484L9.2305 15.9854L11.998 13.7237L12.8312 12.0275C13.0693 11.7597 13.4562 11.7299 13.724 11.968C14.1108 12.3251 14.1406 13.2476 14.8548 13.7833C15.3607 14.1404 16.5213 14.1106 17.0867 14.4082C18.5151 15.2117 20.5386 16.0746 21.5504 16.4615C21.848 16.5805 21.9968 16.9376 21.8777 17.265Z" fill="#BFC6F2"/>
<path d="M39.0779 10.9263C38.6911 10.3906 38.1554 10.0038 37.59 9.67643L36.8758 9.31934L35.4772 10.1823C39.2267 14.4377 33.2156 22.8296 32.5311 23.2164L30.4481 24.3175C30.8052 23.9306 31.0135 23.4545 31.0135 22.9188L31.1325 17.6219C31.1325 17.2053 31.1028 16.7886 31.0135 16.372L30.1505 12.5035C30.0315 11.9976 29.466 11.7298 28.9899 11.9976L24.7643 14.4377C23.8715 14.9436 23.1871 15.7769 22.8597 16.7291L21.4908 20.6572C21.3718 20.9846 21.2528 21.3119 21.0742 21.6095C20.9552 21.8475 20.8659 22.1154 20.8064 22.3832C20.122 23.8116 19.0209 24.9722 17.652 25.7756L14.6762 27.4718C13.9323 27.8885 13.099 28.186 12.2658 28.2753C12.2658 28.2753 10.7779 28.8705 9.52804 30.0608L8.78409 32.8283C8.78409 34.1972 9.88514 35.2983 11.254 35.2983L13.9323 33.8401C14.3489 33.2747 14.7952 30.656 17.5628 30.1501L21.6396 31.1619L31.5789 25.4185L37.5305 21.2524C38.5423 20.6572 39.9112 20.0025 40.1195 18.842C40.179 18.6039 40.2088 18.3361 40.2088 18.098V14.2294C40.2088 13.0986 39.8219 11.9083 39.0779 10.9263ZM22.7407 21.1631L23.812 17.5028C24.1393 16.4315 24.8535 15.509 25.8355 14.9436L29.466 12.8308L30.2398 16.2232C30.3588 16.7886 30.1207 17.3541 29.6446 17.6814L23.4251 21.669C23.068 21.8773 22.6217 21.55 22.7407 21.1631Z" fill="#8698BF"/>
<path d="M11.7003 20.479C11.7003 20.479 11.7301 20.479 11.7301 20.5088C11.7301 20.479 11.7003 20.479 11.7003 20.479Z" fill="#B3B3B3"/>
<path d="M39.5243 18.0091C39.5243 18.0091 38.4827 17.4139 38.4232 17.4734C38.3637 17.5329 36.727 17.8305 36.727 17.8305L34.4654 19.7946L32.5311 24.9725L33.7512 24.288L35.1796 25.0915L39.3755 20.6575L39.4648 20.2409L39.6433 19.0506L39.5243 18.0091Z" fill="#2B2E3A"/>
<path d="M37.7091 19.0205C37.4115 19.0205 37.1139 19.1098 36.8758 19.2586C35.3582 20.1216 34.3464 21.7583 34.3464 23.633C34.3464 24.5555 35.0903 25.3292 36.0426 25.3292C36.3402 25.3292 36.6378 25.24 36.9056 25.0912C38.3935 24.2282 39.435 22.5915 39.435 20.7167C39.4053 19.7942 38.6316 19.0205 37.7091 19.0205Z" fill="#57617F"/>
<path d="M37.3817 17.2651C36.1318 17.6519 35.1498 18.3959 34.3761 19.2589C34.1083 19.5564 33.1262 20.9848 32.9477 21.3717C32.5311 22.1752 32.2633 22.9191 32.0847 23.5738C31.7574 24.6451 31.6383 25.4783 31.6383 25.4783L32.9477 24.7344C32.9477 24.7344 34.0785 18.991 37.3817 17.9793C38.0066 17.8007 38.2149 17.8305 38.5422 17.9197C38.8696 18.0388 39.316 18.2471 39.435 18.5744C39.6731 19.1993 39.554 20.0326 39.4052 20.6277C39.7921 20.1219 40.0302 19.5564 40.1492 18.9613C40.0599 18.5149 39.9111 18.0685 39.6433 17.7114C39.4647 17.4734 38.0066 17.0568 37.3817 17.2651Z" fill="#BFC6F2"/>
<path d="M1.4041 26.0436L1.79095 25.8651C1.79095 24.764 2.11829 23.782 2.11829 23.782L3.57645 22.4727L2.17781 23.1571C2.08854 23.3654 1.90999 23.1273 1.52313 24.5855C0.957724 25.1211 0.779175 25.9246 0.779175 26.3412V27.3232C0.779175 28.216 0.779175 28.7814 0.779175 29.2575C0.779175 29.2575 1.07676 29.317 1.07676 29.1385C1.19579 27.9482 1.4041 26.0436 1.4041 26.0436Z" fill="#8698BF"/>
<path d="M10.4506 31.9656C10.3018 32.2335 11.135 32.8286 11.135 33.275L9.23051 33.1857L10.3018 35.2688L7.62357 34.019L8.72462 30.9836L12.8015 29.6147C12.8313 29.6147 10.5994 31.6978 10.4506 31.9656Z" fill="#F97A7A"/>
<path d="M13.6346 29.1684C12.5633 29.585 10.629 30.1801 8.75425 29.8528L7.38538 28.3946L3.75487 28.0971L1.79083 25.8652C1.79083 25.8652 1.6718 24.8237 1.79083 23.6631C1.79083 23.6631 0.957601 26.3413 1.76107 26.9365C1.76107 27.4721 1.85035 28.0673 2.11817 28.2459C2.2372 28.3351 2.53479 28.4839 2.9514 28.6922L3.57632 29.6445L6.7307 30.6265C6.79021 30.6563 6.81997 30.686 6.87949 30.7158C7.71272 31.1324 8.39716 31.4895 8.63522 31.6383C8.9328 31.8168 9.02208 31.5788 9.02208 31.2217C9.49821 31.2217 10.3612 31.1919 11.6408 30.9538C11.9086 30.8943 12.6228 30.3884 13.7834 29.4362C13.8727 29.3171 13.7536 29.1386 13.6346 29.1684Z" fill="#2B2E3A"/>
<path d="M1.67189 29.0791L8.75434 33.156C9.23048 34.2868 9.67685 34.9415 9.67685 34.9415C9.11144 35.12 8.45676 34.2868 7.98063 34.138C7.5045 33.9892 2.0885 31.8169 2.0885 31.8169C1.58261 31.4598 1.13624 30.7456 1.04697 30.448C1.07672 30.0611 1.67189 29.0791 1.67189 29.0791Z" fill="#EF3F54"/>
<path d="M8.5757 17.8901C8.12933 18.4258 7.80199 19.021 7.41513 19.5864C7.05803 20.1518 6.67118 20.7469 6.28432 21.3123C5.86771 21.8777 5.45109 22.4431 4.97496 22.949C4.91544 23.0085 4.85593 23.0681 4.79641 23.1276C4.73689 23.1871 4.67738 23.2466 4.5881 23.3359C4.43931 23.4847 4.17149 23.574 3.96318 23.5144C3.75487 23.4847 3.60608 23.3359 3.48705 23.3061C3.45729 23.3061 3.45729 23.2764 3.45729 23.3061C3.42753 23.3359 3.42753 23.3656 3.42753 23.3954C3.39777 23.4847 3.39777 23.574 3.39777 23.6632C3.36802 23.574 3.33826 23.4847 3.33826 23.3954C3.33826 23.3359 3.33826 23.3061 3.36802 23.2466C3.39777 23.1871 3.48705 23.1276 3.54656 23.1276C3.75487 23.1573 3.90366 23.2169 4.05245 23.2169C4.17149 23.2169 4.26076 23.1573 4.35004 23.0383C4.37979 22.9788 4.43931 22.9193 4.46907 22.83C4.49883 22.7705 4.55834 22.6812 4.61786 22.6217C4.97496 22.0563 5.36182 21.4611 5.74867 20.8957C6.13553 20.3303 6.55214 19.7649 7.02828 19.259C7.26634 18.9912 7.50441 18.7531 7.77223 18.5151C7.95078 18.277 8.21861 18.0389 8.5757 17.8901Z" fill="#8698BF"/>
<path d="M17.7413 23.6035C17.2652 23.9606 16.7593 24.288 16.2236 24.5558C15.688 24.8236 15.1523 25.0617 14.5869 25.27C14.0215 25.4783 13.4561 25.6568 12.8907 25.8354L12.0575 26.0734C11.7896 26.1627 11.4921 26.252 11.2838 26.3413L11.373 26.252C11.135 26.6091 10.8671 26.9364 10.5993 27.2638L10.51 27.3531L10.4208 27.3233C10.0042 27.234 9.6173 27.1447 9.20068 27.0257C9.6173 26.9662 10.0339 26.9662 10.4505 26.9662L10.272 27.0555C10.4505 26.6686 10.6588 26.3115 10.8671 25.9247L10.8969 25.8651L10.9564 25.8354C11.254 25.6568 11.5218 25.5676 11.8194 25.4485C12.0872 25.3295 12.3848 25.2402 12.6526 25.1509C13.218 24.9724 13.7834 24.7938 14.3191 24.6451L15.9856 24.1392L17.7413 23.6035Z" fill="#8698BF"/>
<path d="M21.1337 31.549L21.8479 29.8825L20.9849 27.9185H18.9018L17.3842 28.9898L15.6284 30.8348L14.6762 32.4417C14.6762 32.4417 15.3309 31.9953 16.0748 31.5787C18.3662 30.3289 21.1337 31.549 21.1337 31.549Z" fill="#2B2E3A"/>
<path d="M19.259 30.6263C18.9317 30.4477 18.4853 30.5965 18.1282 30.9536L16.2534 29.8525L15.5095 31.1917L17.4438 32.3225C17.3843 32.7688 17.4735 33.1259 17.7711 33.3045L18.1282 33.5128L19.6161 30.8346C19.6161 30.8346 19.2888 30.656 19.259 30.6263Z" fill="#57617F"/>
<path d="M19.616 30.8346C19.1399 30.5966 18.4554 30.9834 18.0686 31.7274C17.6817 32.4713 17.652 33.2748 18.1281 33.5129C18.6042 33.7509 19.3779 33.3641 19.7648 32.6201C20.1517 31.8762 20.0921 31.0727 19.616 30.8346Z" fill="#8698BF"/>
<path d="M14.4976 32.7098C14.4976 32.7098 15.1226 32.2336 15.5392 31.1921C15.7177 30.7457 16.0451 31.1921 16.3427 30.716C16.9973 29.6447 17.9496 28.6329 19.259 28.246C22.5919 27.2343 21.104 31.5492 21.104 31.5492L22.086 30.9838C22.086 30.9838 22.7109 26.4308 19.2887 27.5021C17.4437 28.0972 16.3427 28.6329 15.5094 29.853C15.3606 30.0613 15.1821 30.8945 15.1821 30.8945L13.5156 31.9361C13.5156 31.9361 13.7239 32.9776 13.6644 33.2157C13.5454 33.6025 13.9025 33.9001 13.9025 33.9001C14.4381 33.5132 14.3489 33.2157 14.4976 32.7098Z" fill="#BFC6F2"/>
</svg>
